<svg width="256" height="256" viewBox="0 0 256 256" fill="none" xmlns="http://www.w3.org/2000/svg">
<path d="M195.334 206.818C182.632 206.818 171.759 204.307 162.715 199.284C153.671 194.21 146.736 187.157 141.909 178.126C137.082 169.043 134.669 158.515 134.669 146.541C134.669 134.567 137.082 124.064 141.909 115.032C146.736 105.95 153.671 98.8974 162.715 93.8742C171.759 88.8004 182.632 86.2635 195.334 86.2635C208.037 86.2635 218.91 88.8004 227.954 93.8742C236.998 98.8974 243.933 105.95 248.76 115.032C253.587 124.064 256 134.567 256 146.541C256 158.515 253.587 169.043 248.76 178.126C243.933 187.157 236.998 194.21 227.954 199.284C218.91 204.307 208.037 206.818 195.334 206.818ZM195.639 175.766C199.196 175.766 202.27 174.574 204.861 172.189C207.452 169.805 209.459 166.405 210.882 161.991C212.304 157.577 213.016 152.325 213.016 146.236C213.016 140.097 212.304 134.846 210.882 130.482C209.459 126.068 207.452 122.668 204.861 120.284C202.27 117.899 199.196 116.707 195.639 116.707C191.879 116.707 188.653 117.899 185.96 120.284C183.267 122.668 181.209 126.068 179.787 130.482C178.364 134.846 177.653 140.097 177.653 146.236C177.653 152.325 178.364 157.577 179.787 161.991C181.209 166.405 183.267 169.805 185.96 172.189C188.653 174.574 191.879 175.766 195.639 175.766Z" fill="white"/>
<path fill-rule="evenodd" clip-rule="evenodd" d="M8 204.687C3.58172 204.687 0 201.106 0 196.687V56.8183C0 52.4001 3.58172 48.8184 8 48.8184H67.3724C78.9568 48.8184 89.0932 51.1016 97.7815 55.6681C106.47 60.2345 113.227 66.653 118.054 74.9234C122.881 83.1938 125.294 92.8595 125.294 103.92C125.294 115.083 122.805 124.749 117.826 132.918C112.897 141.087 105.962 147.378 97.0194 151.792C88.1278 156.207 77.7374 158.414 65.8482 158.414H50.3745C45.9562 158.414 42.3745 161.995 42.3745 166.414V196.687C42.3745 201.106 38.7928 204.687 34.3745 204.687H8ZM70.0399 122.947C66.5341 124.673 62.2916 125.535 57.3123 125.535H50.3745C45.9562 125.535 42.3745 121.953 42.3745 117.535V90.6103C42.3745 86.192 45.9562 82.6103 50.3745 82.6103H57.3123C62.2916 82.6103 66.5341 83.4728 70.0399 85.1979C73.5965 86.8723 76.3148 89.3078 78.1947 92.5043C80.1254 95.6501 81.0908 99.4555 81.0908 103.92C81.0908 108.335 80.1254 112.165 78.1947 115.413C76.3148 118.66 73.5965 121.172 70.0399 122.947Z" fill="white"/>
</svg>
