<svg width="512" height="513" viewBox="0 0 512 513" fill="none" xmlns="http://www.w3.org/2000/svg">
<path d="M248.583 89.0996C234.817 89.0996 224.493 85.2257 217.61 77.4779C210.727 69.7301 207.285 59.8302 207.285 47.7781C207.285 34.0042 211.372 22.5977 219.545 13.5587C228.149 4.51955 239.764 0 254.391 0C269.017 0 279.772 3.8739 286.655 11.6217C293.538 19.3695 296.979 29.2694 296.979 41.3216C296.979 55.9563 292.677 67.578 284.074 76.1867C275.9 84.7953 264.285 89.0996 249.228 89.0996H248.583Z" fill="#FF2828"/>
<path d="M222.772 228.579C222.772 213.809 212.623 200.975 198.251 197.569L189.431 195.479C180.228 193.298 173.73 185.08 173.73 175.623V175.623C173.73 165.301 181.437 156.605 191.683 155.365L270.361 145.838C273.357 145.475 276.374 146.316 278.75 148.177V148.177L282.461 151.082V151.082C287.145 154.75 289.881 160.369 289.881 166.318V449.258C289.881 463.984 301.04 476.314 315.693 477.781L326.55 478.867C335.039 479.716 341.504 486.86 341.504 495.392V495.392C341.504 504.564 334.068 512 324.896 512H187.199C177.979 512 170.504 504.525 170.504 495.305V495.305C170.504 486.798 176.9 479.652 185.354 478.712L196.638 477.458C211.516 475.804 222.772 463.227 222.772 448.257V228.579Z" fill="#FF2828"/>
</svg>
