<svg width="512" height="512" viewBox="0 0 512 512" fill="none" xmlns="http://www.w3.org/2000/svg">
<path d="M418 456C435.673 456 450.269 441.578 447.365 424.145C444.95 409.643 440.887 395.429 435.233 381.783C425.483 358.253 411.193 336.873 393.179 318.864C375.164 300.855 353.778 286.57 330.241 276.823C306.703 267.077 281.476 262.061 256 262.061C230.524 262.061 205.297 267.077 181.759 276.823C158.222 286.57 136.836 300.855 118.821 318.864C100.807 336.873 86.5168 358.253 76.7674 381.783C71.1132 395.429 67.0504 409.643 64.6349 424.145C61.7311 441.578 76.3269 456 94 456H418Z" fill="rgb(255, 40, 40)"/>
<path d="M353 152.97C353 206.525 309.572 249.939 256 249.939C202.428 249.939 159 206.525 159 152.97C159 99.4148 202.428 56 256 56C309.572 56 353 99.4148 353 152.97Z" fill="rgb(255, 40, 40)"/>
</svg>
